<mxfile host="Electron" modified="2024-06-22T13:56:03.381Z" agent="Mozilla/5.0 (Windows NT 10.0; Win64; x64) AppleWebKit/537.36 (KHTML, like Gecko) draw.io/24.5.3 Chrome/124.0.6367.207 Electron/30.0.6 Safari/537.36" etag="TSmeSPiEnn19M-npAc8B" version="24.5.3" type="device">
  <diagram name="Page-1" id="btcpCZB6vtGhu5WBstjq">
    <mxGraphModel dx="1050" dy="621" grid="1" gridSize="10" guides="1" tooltips="1" connect="1" arrows="1" fold="1" page="1" pageScale="1" pageWidth="750" pageHeight="950" math="0" shadow="0">
      <root>
        <mxCell id="0" />
        <mxCell id="1" parent="0" />
        <mxCell id="Rh9CGznedd6ik9ucD9in-6" value="" style="edgeStyle=orthogonalEdgeStyle;rounded=0;orthogonalLoop=1;jettySize=auto;html=1;endArrow=block;endFill=0;" parent="1" source="Rh9CGznedd6ik9ucD9in-2" edge="1">
          <mxGeometry relative="1" as="geometry">
            <mxPoint x="425" y="120" as="targetPoint" />
          </mxGeometry>
        </mxCell>
        <mxCell id="Rh9CGznedd6ik9ucD9in-2" value="" style="ellipse;fillColor=strokeColor;html=1;" parent="1" vertex="1">
          <mxGeometry x="415" y="60" width="20" height="20" as="geometry" />
        </mxCell>
        <mxCell id="Rh9CGznedd6ik9ucD9in-13" style="edgeStyle=orthogonalEdgeStyle;rounded=0;orthogonalLoop=1;jettySize=auto;html=1;exitX=0.5;exitY=1;exitDx=0;exitDy=0;entryX=0.5;entryY=0;entryDx=0;entryDy=0;endArrow=block;endFill=0;" parent="1" source="Rh9CGznedd6ik9ucD9in-7" target="Rh9CGznedd6ik9ucD9in-12" edge="1">
          <mxGeometry relative="1" as="geometry" />
        </mxCell>
        <mxCell id="Rh9CGznedd6ik9ucD9in-7" value="Upload Pan Card" style="html=1;align=center;verticalAlign=top;rounded=1;absoluteArcSize=1;arcSize=52;dashed=0;whiteSpace=wrap;" parent="1" vertex="1">
          <mxGeometry x="355" y="120" width="140" height="30" as="geometry" />
        </mxCell>
        <mxCell id="Rh9CGznedd6ik9ucD9in-17" style="edgeStyle=orthogonalEdgeStyle;rounded=0;orthogonalLoop=1;jettySize=auto;html=1;exitX=1;exitY=0.5;exitDx=0;exitDy=0;entryX=1;entryY=0.5;entryDx=0;entryDy=0;jumpStyle=none;endArrow=block;endFill=0;" parent="1" source="Rh9CGznedd6ik9ucD9in-12" target="Rh9CGznedd6ik9ucD9in-7" edge="1">
          <mxGeometry relative="1" as="geometry">
            <Array as="points">
              <mxPoint x="530" y="230" />
              <mxPoint x="530" y="135" />
            </Array>
          </mxGeometry>
        </mxCell>
        <mxCell id="Rh9CGznedd6ik9ucD9in-29" style="edgeStyle=orthogonalEdgeStyle;rounded=0;orthogonalLoop=1;jettySize=auto;html=1;exitX=0;exitY=0.5;exitDx=0;exitDy=0;entryX=0.5;entryY=0;entryDx=0;entryDy=0;endArrow=block;endFill=0;" parent="1" source="Rh9CGznedd6ik9ucD9in-12" target="Rh9CGznedd6ik9ucD9in-21" edge="1">
          <mxGeometry relative="1" as="geometry" />
        </mxCell>
        <mxCell id="Rh9CGznedd6ik9ucD9in-12" value="Is Valid?" style="rhombus;whiteSpace=wrap;html=1;" parent="1" vertex="1">
          <mxGeometry x="385" y="190" width="80" height="80" as="geometry" />
        </mxCell>
        <mxCell id="Rh9CGznedd6ik9ucD9in-19" value="No" style="text;html=1;align=center;verticalAlign=middle;whiteSpace=wrap;rounded=0;" parent="1" vertex="1">
          <mxGeometry x="465" y="210" width="45" height="20" as="geometry" />
        </mxCell>
        <mxCell id="Rh9CGznedd6ik9ucD9in-20" value="Start" style="text;html=1;align=center;verticalAlign=middle;whiteSpace=wrap;rounded=0;" parent="1" vertex="1">
          <mxGeometry x="365" y="55" width="60" height="30" as="geometry" />
        </mxCell>
        <mxCell id="Rh9CGznedd6ik9ucD9in-30" style="edgeStyle=orthogonalEdgeStyle;rounded=0;orthogonalLoop=1;jettySize=auto;html=1;exitX=0.5;exitY=1;exitDx=0;exitDy=0;entryX=0.5;entryY=0;entryDx=0;entryDy=0;endArrow=block;endFill=0;" parent="1" source="Rh9CGznedd6ik9ucD9in-21" target="Rh9CGznedd6ik9ucD9in-23" edge="1">
          <mxGeometry relative="1" as="geometry" />
        </mxCell>
        <mxCell id="Rh9CGznedd6ik9ucD9in-21" value="Upload Mortgage Documents" style="html=1;align=center;verticalAlign=top;rounded=1;absoluteArcSize=1;arcSize=52;dashed=0;whiteSpace=wrap;" parent="1" vertex="1">
          <mxGeometry x="210" y="290" width="195" height="30" as="geometry" />
        </mxCell>
        <mxCell id="Rh9CGznedd6ik9ucD9in-32" style="edgeStyle=orthogonalEdgeStyle;rounded=0;orthogonalLoop=1;jettySize=auto;html=1;exitX=0.5;exitY=1;exitDx=0;exitDy=0;entryX=0.5;entryY=0;entryDx=0;entryDy=0;endArrow=block;endFill=0;" parent="1" source="Rh9CGznedd6ik9ucD9in-23" target="Rh9CGznedd6ik9ucD9in-31" edge="1">
          <mxGeometry relative="1" as="geometry" />
        </mxCell>
        <mxCell id="Rh9CGznedd6ik9ucD9in-23" value="Upload Valuation Certificate" style="html=1;align=center;verticalAlign=top;rounded=1;absoluteArcSize=1;arcSize=52;dashed=0;whiteSpace=wrap;" parent="1" vertex="1">
          <mxGeometry x="212.5" y="340" width="190" height="30" as="geometry" />
        </mxCell>
        <mxCell id="Rh9CGznedd6ik9ucD9in-25" value="Yes" style="text;html=1;align=center;verticalAlign=middle;whiteSpace=wrap;rounded=0;" parent="1" vertex="1">
          <mxGeometry x="340" y="210" width="45" height="20" as="geometry" />
        </mxCell>
        <mxCell id="Rh9CGznedd6ik9ucD9in-34" style="edgeStyle=orthogonalEdgeStyle;rounded=0;orthogonalLoop=1;jettySize=auto;html=1;exitX=0.5;exitY=1;exitDx=0;exitDy=0;entryX=0.5;entryY=0;entryDx=0;entryDy=0;endArrow=block;endFill=0;" parent="1" source="Rh9CGznedd6ik9ucD9in-31" target="Rh9CGznedd6ik9ucD9in-33" edge="1">
          <mxGeometry relative="1" as="geometry">
            <Array as="points">
              <mxPoint x="308" y="440" />
              <mxPoint x="308" y="440" />
            </Array>
          </mxGeometry>
        </mxCell>
        <mxCell id="Rh9CGznedd6ik9ucD9in-31" value="Enter Loan Amount" style="html=1;align=center;verticalAlign=top;rounded=1;absoluteArcSize=1;arcSize=52;dashed=0;whiteSpace=wrap;" parent="1" vertex="1">
          <mxGeometry x="212.5" y="390" width="190" height="30" as="geometry" />
        </mxCell>
        <mxCell id="Rh9CGznedd6ik9ucD9in-35" style="edgeStyle=orthogonalEdgeStyle;rounded=0;orthogonalLoop=1;jettySize=auto;html=1;exitX=1;exitY=0.5;exitDx=0;exitDy=0;entryX=1;entryY=0.5;entryDx=0;entryDy=0;endArrow=block;endFill=0;" parent="1" source="Rh9CGznedd6ik9ucD9in-33" target="Rh9CGznedd6ik9ucD9in-31" edge="1">
          <mxGeometry relative="1" as="geometry">
            <Array as="points">
              <mxPoint x="520" y="490" />
              <mxPoint x="520" y="405" />
            </Array>
          </mxGeometry>
        </mxCell>
        <mxCell id="Rh9CGznedd6ik9ucD9in-38" style="edgeStyle=orthogonalEdgeStyle;rounded=0;orthogonalLoop=1;jettySize=auto;html=1;exitX=0;exitY=0.5;exitDx=0;exitDy=0;endArrow=block;endFill=0;" parent="1" source="Rh9CGznedd6ik9ucD9in-33" target="Rh9CGznedd6ik9ucD9in-37" edge="1">
          <mxGeometry relative="1" as="geometry" />
        </mxCell>
        <mxCell id="Rh9CGznedd6ik9ucD9in-33" value="&lt;div&gt;Check&amp;nbsp;&lt;/div&gt;&lt;div&gt;Credit&amp;nbsp;&lt;span style=&quot;background-color: initial;&quot;&gt;Score?&lt;/span&gt;&lt;/div&gt;" style="rhombus;whiteSpace=wrap;html=1;" parent="1" vertex="1">
          <mxGeometry x="243.75" y="450" width="127.5" height="80" as="geometry" />
        </mxCell>
        <mxCell id="Rh9CGznedd6ik9ucD9in-36" value="Is not satisfie" style="text;html=1;align=center;verticalAlign=middle;whiteSpace=wrap;rounded=0;" parent="1" vertex="1">
          <mxGeometry x="370" y="470" width="90" height="20" as="geometry" />
        </mxCell>
        <mxCell id="Rh9CGznedd6ik9ucD9in-37" value="Repayment Information" style="html=1;align=center;verticalAlign=top;rounded=1;absoluteArcSize=1;arcSize=52;dashed=0;whiteSpace=wrap;" parent="1" vertex="1">
          <mxGeometry x="100" y="550" width="190" height="30" as="geometry" />
        </mxCell>
        <mxCell id="Rh9CGznedd6ik9ucD9in-39" value="Is satisfie" style="text;html=1;align=center;verticalAlign=middle;whiteSpace=wrap;rounded=0;" parent="1" vertex="1">
          <mxGeometry x="170" y="470" width="73.75" height="20" as="geometry" />
        </mxCell>
        <mxCell id="Rh9CGznedd6ik9ucD9in-52" style="edgeStyle=orthogonalEdgeStyle;rounded=0;orthogonalLoop=1;jettySize=auto;html=1;exitX=0.75;exitY=0.5;exitDx=0;exitDy=0;exitPerimeter=0;entryX=0.5;entryY=0;entryDx=0;entryDy=0;endArrow=block;endFill=0;" parent="1" source="Rh9CGznedd6ik9ucD9in-44" target="Rh9CGznedd6ik9ucD9in-48" edge="1">
          <mxGeometry relative="1" as="geometry" />
        </mxCell>
        <mxCell id="Rh9CGznedd6ik9ucD9in-63" style="edgeStyle=orthogonalEdgeStyle;rounded=0;orthogonalLoop=1;jettySize=auto;html=1;exitX=0.25;exitY=0.5;exitDx=0;exitDy=0;exitPerimeter=0;entryX=0.5;entryY=0;entryDx=0;entryDy=0;endArrow=block;endFill=0;" parent="1" source="Rh9CGznedd6ik9ucD9in-44" target="Rh9CGznedd6ik9ucD9in-47" edge="1">
          <mxGeometry relative="1" as="geometry" />
        </mxCell>
        <mxCell id="Rh9CGznedd6ik9ucD9in-44" value="" style="shape=line;html=1;strokeWidth=3;strokeColor=#000000;" parent="1" vertex="1">
          <mxGeometry x="65" y="610" width="275" height="10" as="geometry" />
        </mxCell>
        <mxCell id="Rh9CGznedd6ik9ucD9in-47" value="Generate&lt;div&gt;Token&lt;/div&gt;" style="html=1;align=center;verticalAlign=top;rounded=1;absoluteArcSize=1;arcSize=52;dashed=0;whiteSpace=wrap;" parent="1" vertex="1">
          <mxGeometry x="90" y="650" width="106.25" height="40" as="geometry" />
        </mxCell>
        <mxCell id="Rh9CGznedd6ik9ucD9in-48" value="Time&lt;div&gt;Stamp&lt;/div&gt;" style="html=1;align=center;verticalAlign=top;rounded=1;absoluteArcSize=1;arcSize=52;dashed=0;whiteSpace=wrap;" parent="1" vertex="1">
          <mxGeometry x="212.5" y="650" width="106.25" height="40" as="geometry" />
        </mxCell>
        <mxCell id="Rh9CGznedd6ik9ucD9in-53" value="" style="shape=line;html=1;strokeWidth=3;strokeColor=#000000;" parent="1" vertex="1">
          <mxGeometry x="65" y="720" width="275" height="10" as="geometry" />
        </mxCell>
        <mxCell id="Rh9CGznedd6ik9ucD9in-76" value="" style="edgeStyle=orthogonalEdgeStyle;rounded=0;orthogonalLoop=1;jettySize=auto;html=1;endArrow=block;endFill=0;" parent="1" source="Rh9CGznedd6ik9ucD9in-66" target="Rh9CGznedd6ik9ucD9in-74" edge="1">
          <mxGeometry relative="1" as="geometry" />
        </mxCell>
        <mxCell id="Rh9CGznedd6ik9ucD9in-77" style="edgeStyle=orthogonalEdgeStyle;rounded=0;orthogonalLoop=1;jettySize=auto;html=1;exitX=1;exitY=0.5;exitDx=0;exitDy=0;entryX=0;entryY=0.5;entryDx=0;entryDy=0;endArrow=block;endFill=0;" parent="1" source="Rh9CGznedd6ik9ucD9in-66" target="Rh9CGznedd6ik9ucD9in-75" edge="1">
          <mxGeometry relative="1" as="geometry" />
        </mxCell>
        <mxCell id="Rh9CGznedd6ik9ucD9in-66" value="Review Application" style="html=1;align=center;verticalAlign=top;rounded=1;absoluteArcSize=1;arcSize=52;dashed=0;whiteSpace=wrap;" parent="1" vertex="1">
          <mxGeometry x="100" y="760" width="190" height="30" as="geometry" />
        </mxCell>
        <mxCell id="Rh9CGznedd6ik9ucD9in-67" style="edgeStyle=orthogonalEdgeStyle;rounded=0;orthogonalLoop=1;jettySize=auto;html=1;exitX=0.511;exitY=0.48;exitDx=0;exitDy=0;endArrow=block;endFill=0;exitPerimeter=0;" parent="1" source="Rh9CGznedd6ik9ucD9in-53" edge="1">
          <mxGeometry relative="1" as="geometry">
            <mxPoint x="198" y="760" as="targetPoint" />
          </mxGeometry>
        </mxCell>
        <mxCell id="Rh9CGznedd6ik9ucD9in-71" style="edgeStyle=orthogonalEdgeStyle;rounded=0;orthogonalLoop=1;jettySize=auto;html=1;exitX=0.5;exitY=1;exitDx=0;exitDy=0;entryX=0.28;entryY=0.56;entryDx=0;entryDy=0;entryPerimeter=0;endArrow=block;endFill=0;" parent="1" source="Rh9CGznedd6ik9ucD9in-47" target="Rh9CGznedd6ik9ucD9in-53" edge="1">
          <mxGeometry relative="1" as="geometry" />
        </mxCell>
        <mxCell id="Rh9CGznedd6ik9ucD9in-72" style="edgeStyle=orthogonalEdgeStyle;rounded=0;orthogonalLoop=1;jettySize=auto;html=1;exitX=0.5;exitY=1;exitDx=0;exitDy=0;entryX=0.725;entryY=0.72;entryDx=0;entryDy=0;entryPerimeter=0;endArrow=block;endFill=0;" parent="1" source="Rh9CGznedd6ik9ucD9in-48" target="Rh9CGznedd6ik9ucD9in-53" edge="1">
          <mxGeometry relative="1" as="geometry" />
        </mxCell>
        <mxCell id="Rh9CGznedd6ik9ucD9in-73" style="edgeStyle=orthogonalEdgeStyle;rounded=0;orthogonalLoop=1;jettySize=auto;html=1;exitX=0.5;exitY=1;exitDx=0;exitDy=0;entryX=0.469;entryY=0.52;entryDx=0;entryDy=0;entryPerimeter=0;endArrow=block;endFill=0;" parent="1" source="Rh9CGznedd6ik9ucD9in-37" target="Rh9CGznedd6ik9ucD9in-44" edge="1">
          <mxGeometry relative="1" as="geometry" />
        </mxCell>
        <mxCell id="Rh9CGznedd6ik9ucD9in-80" style="edgeStyle=orthogonalEdgeStyle;rounded=0;orthogonalLoop=1;jettySize=auto;html=1;exitX=0.5;exitY=1;exitDx=0;exitDy=0;entryX=0.5;entryY=0;entryDx=0;entryDy=0;endArrow=block;endFill=0;" parent="1" source="Rh9CGznedd6ik9ucD9in-74" target="Rh9CGznedd6ik9ucD9in-79" edge="1">
          <mxGeometry relative="1" as="geometry" />
        </mxCell>
        <mxCell id="Rh9CGznedd6ik9ucD9in-74" value="Click on Submit" style="html=1;align=center;verticalAlign=top;rounded=1;absoluteArcSize=1;arcSize=52;dashed=0;whiteSpace=wrap;" parent="1" vertex="1">
          <mxGeometry x="100" y="820" width="190" height="30" as="geometry" />
        </mxCell>
        <mxCell id="Rh9CGznedd6ik9ucD9in-78" style="edgeStyle=orthogonalEdgeStyle;rounded=0;orthogonalLoop=1;jettySize=auto;html=1;exitX=0.5;exitY=0;exitDx=0;exitDy=0;entryX=1;entryY=0.5;entryDx=0;entryDy=0;endArrow=block;endFill=0;" parent="1" source="Rh9CGznedd6ik9ucD9in-75" target="Rh9CGznedd6ik9ucD9in-2" edge="1">
          <mxGeometry relative="1" as="geometry">
            <mxPoint x="640" y="390" as="targetPoint" />
          </mxGeometry>
        </mxCell>
        <mxCell id="Rh9CGznedd6ik9ucD9in-75" value="Click on Cancel" style="html=1;align=center;verticalAlign=top;rounded=1;absoluteArcSize=1;arcSize=52;dashed=0;whiteSpace=wrap;" parent="1" vertex="1">
          <mxGeometry x="495" y="760" width="190" height="30" as="geometry" />
        </mxCell>
        <mxCell id="Rh9CGznedd6ik9ucD9in-79" value="" style="ellipse;html=1;shape=endState;fillColor=strokeColor;" parent="1" vertex="1">
          <mxGeometry x="180" y="870" width="30" height="30" as="geometry" />
        </mxCell>
        <mxCell id="Rh9CGznedd6ik9ucD9in-81" value="End" style="text;html=1;align=center;verticalAlign=middle;whiteSpace=wrap;rounded=0;" parent="1" vertex="1">
          <mxGeometry x="196.25" y="870" width="60" height="30" as="geometry" />
        </mxCell>
      </root>
    </mxGraphModel>
  </diagram>
</mxfile>
